<?xml version="1.0" encoding="UTF-8" standalone="no" ?>
<!DOCTYPE svg PUBLIC "-//W3C//DTD SVG 1.1//EN" "http://www.w3.org/Graphics/SVG/1.1/DTD/svg11.dtd">
<svg xmlns="http://www.w3.org/2000/svg" xmlns:xlink="http://www.w3.org/1999/xlink" version="1.1" width="400" height="400" viewBox="0 0 400 400" xml:space="preserve">
<desc>Created with Fabric.js 3.6.2</desc>
<defs>
</defs>
<g transform="matrix(0.39 0 0 0.39 200 200)" id="Layer_1"  >
<path style="stroke: none; stroke-width: 1; stroke-dasharray: none; stroke-linecap: butt; stroke-dashoffset: 0; stroke-linejoin: miter; stroke-miterlimit: 4; fill: rgb(64,64,64); fill-rule: nonzero; opacity: 1;"  transform=" translate(-255.96, -256.01)" d="M 508.6 148.8 c 0 -45 -33.1 -81.2 -74 -81.2 C 379.2 65 322.7 64 265 64 c -3 0 -6 0 -9 0 s -6 0 -9 0 c -57.6 0 -114.2 1 -169.6 3.6 c -40.8 0 -73.9 36.4 -73.9 81.4 C 1 184.6 -0.1 220.2 0 255.8 C -0.1 291.4 1 327 3.4 362.7 c 0 45 33.1 81.5 73.9 81.5 c 58.2 2.7 117.9 3.9 178.6 3.8 c 60.8 0.2 120.3 -1 178.6 -3.8 c 40.9 0 74 -36.5 74 -81.5 c 2.4 -35.7 3.5 -71.3 3.4 -107 C 512.1 220.1 511 184.5 508.6 148.8 z M 207 353.9 V 157.4 l 145 98.2 L 207 353.9 z" stroke-linecap="round" />
</g>
</svg>