<svg height="62" version="1.1" width="253" xmlns="http://www.w3.org/2000/svg" xmlns:xlink="http://www.w3.org/1999/xlink" style="overflow: hidden; position: relative; left: -0.666687px; top: -0.125px;" viewBox="185.578125 191.40336412353517 253 62" preserveAspectRatio="xMinYMin" id="main_svg"><desc style="-webkit-tap-highlight-color: rgba(0, 0, 0, 0);">Created with Logotizer</desc><defs style="-webkit-tap-highlight-color: rgba(0, 0, 0, 0);"></defs><path fill="#0a0a0b" stroke="none" d="M-122.98,0L-116.38,-37.5L-111.52,-37.5L-114.17,-22.45Q-110.02,-26.09,-105.36,-26.09Q-99.83,-26.09,-96.62,-22.17Q-94.16,-19.15,-94.16,-15.19Q-94.16,-13.99,-94.37,-12.73Q-95.35,-7.2,-99.95,-3.28Q-104.54,0.63,-110.07,0.63Q-114.73,0.63,-117.59,-3L-118.13,0L-122.98,0M-116.23,-10.83Q-116.16,-8.63,-114.69,-6.82Q-112.65,-4.38,-109.18,-4.38Q-105.71,-4.38,-102.83,-6.82Q-99.95,-9.26,-99.34,-12.73Q-99.2,-13.52,-99.2,-14.27Q-99.2,-16.73,-100.74,-18.63Q-102.76,-21.09,-106.23,-21.09Q-109.7,-21.09,-112.6,-18.63Q-114.71,-16.83,-115.55,-14.6L-116.23,-10.83ZM-88.51,-12.7Q-87.55,-18.23,-82.95,-22.14Q-78.36,-26.04,-72.83,-26.04Q-68.19,-26.04,-65.3,-22.43L-65.02,-24.12L-60.15,-24.12L-64.39,0.02L-69.27,0.02L-68.73,-3Q-72.9,0.63,-77.54,0.63Q-83.07,0.61,-86.28,-3.28Q-88.74,-6.26,-88.74,-10.2Q-88.74,-11.41,-88.51,-12.7M-83.54,-12.7Q-83.68,-11.91,-83.68,-11.16Q-83.68,-8.67,-82.13,-6.8Q-80.12,-4.36,-76.65,-4.36Q-73.2,-4.36,-70.32,-6.8Q-68.16,-8.65,-67.34,-10.92L-66.71,-14.48Q-66.73,-16.76,-68.23,-18.61Q-70.27,-21.05,-73.72,-21.05Q-77.19,-21.05,-80.06,-18.61Q-82.93,-16.17,-83.54,-12.7ZM-56.49,-12.73Q-55.53,-18.26,-50.93,-22.17Q-46.32,-26.09,-40.81,-26.09Q-35.28,-26.09,-32.05,-22.17Q-31.39,-21.38,-30.03,-18.96L-35.21,-17.18Q-35.94,-18.33,-36.22,-18.66Q-38.21,-21.09,-41.68,-21.09Q-45.13,-21.09,-48.01,-18.64Q-50.89,-16.2,-51.5,-12.73Q-51.64,-11.93,-51.64,-11.18Q-51.64,-8.72,-50.09,-6.84Q-48.08,-4.41,-44.63,-4.38Q-41.16,-4.38,-38.28,-6.82Q-37.91,-7.15,-36.78,-8.27L-32.23,-6.54Q-34.44,-4.08,-35.38,-3.28Q-39.99,0.63,-45.52,0.63Q-51.01,0.63,-54.24,-3.28Q-56.7,-6.28,-56.73,-10.22Q-56.73,-11.44,-56.49,-12.73ZM-25.77,-19.27L-24.92,-24.12L-20.59,-24.12L-18.97,-33.16L-14.12,-33.16L-15.73,-24.12L-11.4,-24.12L-12.24,-19.27L-16.58,-19.27L-19.98,0L-24.83,0L-21.43,-19.27L-25.77,-19.27ZM-8.87,8.11L-0.08,-5.37L-5.75,-24.12L-0.29,-24.12L3.51,-10.92L11.95,-24.12L17.38,-24.12L-3.73,8.11L-8.87,8.11ZM18.46,0L25.07,-37.5L29.92,-37.5L27.27,-22.45Q31.42,-26.09,36.09,-26.09Q41.62,-26.09,44.83,-22.17Q47.29,-19.15,47.29,-15.19Q47.29,-13.99,47.08,-12.73Q46.09,-7.2,41.5,-3.28Q36.91,0.63,31.38,0.63Q26.71,0.63,23.85,-3L23.31,0L18.46,0M25.21,-10.83Q25.28,-8.63,26.76,-6.82Q28.8,-4.38,32.27,-4.38Q35.73,-4.38,38.62,-6.82Q41.5,-9.26,42.11,-12.73Q42.25,-13.52,42.25,-14.27Q42.25,-16.73,40.7,-18.63Q38.69,-21.09,35.22,-21.09Q31.75,-21.09,28.84,-18.63Q26.73,-16.83,25.89,-14.6L25.21,-10.83ZM52.94,-12.7Q53.9,-18.23,58.49,-22.14Q63.09,-26.04,68.62,-26.04Q73.26,-26.04,76.14,-22.43L76.42,-24.12L81.3,-24.12L77.05,0.02L72.18,0.02L72.72,-3Q68.55,0.63,63.91,0.63Q58.38,0.61,55.16,-3.28Q52.7,-6.26,52.7,-10.2Q52.7,-11.41,52.94,-12.7M57.91,-12.7Q57.77,-11.91,57.77,-11.16Q57.77,-8.67,59.31,-6.8Q61.33,-4.36,64.8,-4.36Q68.24,-4.36,71.13,-6.8Q73.28,-8.65,74.1,-10.92L74.73,-14.48Q74.71,-16.76,73.21,-18.61Q71.17,-21.05,67.73,-21.05Q64.26,-21.05,61.39,-18.61Q58.52,-16.17,57.91,-12.7ZM84.11,0L90.72,-37.52L95.59,-37.52L88.98,0L84.11,0ZM97.68,-12.7Q98.64,-18.23,103.23,-22.14Q107.83,-26.04,113.36,-26.04Q118,-26.04,120.88,-22.43L121.16,-24.12L126.04,-24.12L121.8,0.02L116.92,0.02L117.46,-3Q113.29,0.63,108.65,0.63Q103.12,0.61,99.91,-3.28Q97.45,-6.26,97.45,-10.2Q97.45,-11.41,97.68,-12.7M102.65,-12.7Q102.51,-11.91,102.51,-11.16Q102.51,-8.67,104.05,-6.8Q106.07,-4.36,109.54,-4.36Q112.98,-4.36,115.87,-6.8Q118.02,-8.65,118.84,-10.92L119.48,-14.48Q119.45,-16.76,117.95,-18.61Q115.91,-21.05,112.47,-21.05Q109,-21.05,106.13,-18.61Q103.26,-16.17,102.65,-12.7Z" transform="matrix(1,0,0,1,311.5,238.7367)" style="-webkit-tap-highlight-color: rgba(0, 0, 0, 0);" stroke-width="1"></path></svg>