<svg height="56.66666793823242" version="1.1" width="235.3125" xmlns="http://www.w3.org/2000/svg" xmlns:xlink="http://www.w3.org/1999/xlink" style="overflow: hidden; position: relative; left: -0.666687px; top: -0.125px;" viewBox="193.84375 192.0700320617676 235.3125 56.66666793823242" preserveAspectRatio="xMinYMin" id="main_svg"><desc style="-webkit-tap-highlight-color: rgba(0, 0, 0, 0);">Created with Logotizer</desc><defs style="-webkit-tap-highlight-color: rgba(0, 0, 0, 0);"></defs><path fill="#0a0a0b" stroke="none" d="M-114.14,-37.5L-112.03,-37.5L-112.03,-19.78Q-111.45,-20.58,-110.7,-21.33Q-106.92,-25.1,-101.6,-25.1Q-96.26,-25.1,-92.5,-21.33Q-88.73,-17.55,-88.73,-12.21Q-88.73,-6.89,-92.5,-3.12Q-96.26,0.66,-101.6,0.66Q-106.92,0.66,-110.7,-3.12Q-111.45,-3.87,-112.03,-4.66L-112.03,0L-114.14,0L-114.14,-37.5M-112.03,-14.41L-112.03,-10.01Q-111.42,-7.01,-109.13,-4.71Q-106.01,-1.59,-101.6,-1.59Q-97.2,-1.59,-94.08,-4.7Q-90.96,-7.8,-90.96,-12.21Q-90.96,-16.62,-94.08,-19.73Q-97.2,-22.85,-101.6,-22.85Q-106.01,-22.85,-109.13,-19.73Q-111.42,-17.44,-112.03,-14.41ZM-57.45,0L-59.55,0L-59.55,-4.69Q-60.16,-3.87,-60.89,-3.12Q-64.66,0.66,-70.01,0.66Q-75.33,0.66,-79.1,-3.12Q-82.88,-6.89,-82.88,-12.21Q-82.88,-17.55,-79.1,-21.33Q-75.33,-25.1,-70.01,-25.1Q-64.66,-25.1,-60.89,-21.33Q-60.16,-20.58,-59.55,-19.76L-59.55,-23.02L-57.45,-23.02L-57.45,0M-59.55,-10.13L-59.55,-14.3Q-60.14,-17.39,-62.48,-19.73Q-65.6,-22.85,-70.01,-22.85Q-74.41,-22.85,-77.53,-19.73Q-80.65,-16.62,-80.65,-12.21Q-80.65,-7.8,-77.53,-4.7Q-74.41,-1.59,-70.01,-1.59Q-65.6,-1.59,-62.48,-4.71Q-60.14,-7.05,-59.55,-10.13ZM-30.68,-5.53L-28.45,-4.73Q-29.06,-3.89,-29.84,-3.12Q-33.61,0.66,-38.95,0.66Q-44.27,0.66,-48.05,-3.12Q-51.82,-6.89,-51.82,-12.23Q-51.82,-17.55,-48.05,-21.33Q-44.27,-25.1,-38.95,-25.1Q-33.61,-25.1,-29.84,-21.33Q-29.06,-20.55,-28.45,-19.73L-30.68,-18.91Q-31.03,-19.34,-31.43,-19.76Q-34.55,-22.85,-38.95,-22.85Q-43.34,-22.85,-46.45,-19.75Q-49.57,-16.64,-49.57,-12.23Q-49.57,-7.83,-46.45,-4.71Q-43.34,-1.59,-38.95,-1.59Q-34.55,-1.59,-31.43,-4.71Q-31.03,-5.11,-30.68,-5.53ZM-19.55,-23.02L-19.55,-32.81L-17.44,-32.81L-17.44,-23.02L-12.75,-23.02L-12.75,-20.91L-17.44,-20.91L-17.44,0L-19.55,0L-19.55,-20.91L-24.23,-20.91L-24.23,-23.02L-19.55,-23.02ZM1.15,-2.06L-4.05,8.79L-6.12,8.79L0.09,-4.24L-8.88,-23.02L-6.49,-23.02L1.15,-6.52L8.79,-23.02L11.16,-23.02L1.15,-2.04L1.15,-2.06ZM16.43,-37.5L18.54,-37.5L18.54,-19.78Q19.13,-20.58,19.88,-21.33Q23.65,-25.1,28.97,-25.1Q34.31,-25.1,38.07,-21.33Q41.84,-17.55,41.84,-12.21Q41.84,-6.89,38.07,-3.12Q34.31,0.66,28.97,0.66Q23.65,0.66,19.88,-3.12Q19.13,-3.87,18.54,-4.66L18.54,0L16.43,0L16.43,-37.5M18.54,-14.41L18.54,-10.01Q19.15,-7.01,21.45,-4.71Q24.56,-1.59,28.97,-1.59Q33.38,-1.59,36.49,-4.7Q39.61,-7.8,39.61,-12.21Q39.61,-16.62,36.49,-19.73Q33.38,-22.85,28.97,-22.85Q24.56,-22.85,21.45,-19.73Q19.15,-17.44,18.54,-14.41ZM73.13,0L71.02,0L71.02,-4.69Q70.41,-3.87,69.68,-3.12Q65.91,0.66,60.56,0.66Q55.24,0.66,51.47,-3.12Q47.7,-6.89,47.7,-12.21Q47.7,-17.55,51.47,-21.33Q55.24,-25.1,60.56,-25.1Q65.91,-25.1,69.68,-21.33Q70.41,-20.58,71.02,-19.76L71.02,-23.02L73.13,-23.02L73.13,0M71.02,-10.13L71.02,-14.3Q70.43,-17.39,68.09,-19.73Q64.97,-22.85,60.56,-22.85Q56.16,-22.85,53.04,-19.73Q49.92,-16.62,49.92,-12.21Q49.92,-7.8,53.04,-4.7Q56.16,-1.59,60.56,-1.59Q64.97,-1.59,68.09,-4.71Q70.43,-7.05,71.02,-10.13ZM82.27,-37.5L82.27,0L80.16,0L80.16,-37.5L82.27,-37.5ZM114.14,0L112.03,0L112.03,-4.69Q111.42,-3.87,110.7,-3.12Q106.92,0.66,101.58,0.66Q96.26,0.66,92.48,-3.12Q88.71,-6.89,88.71,-12.21Q88.71,-17.55,92.48,-21.33Q96.26,-25.1,101.58,-25.1Q106.92,-25.1,110.7,-21.33Q111.42,-20.58,112.03,-19.76L112.03,-23.02L114.14,-23.02L114.14,0M112.03,-10.13L112.03,-14.3Q111.45,-17.39,109.1,-19.73Q105.98,-22.85,101.58,-22.85Q97.17,-22.85,94.05,-19.73Q90.94,-16.62,90.94,-12.21Q90.94,-7.8,94.05,-4.7Q97.17,-1.59,101.58,-1.59Q105.98,-1.59,109.1,-4.71Q111.45,-7.05,112.03,-10.13Z" transform="matrix(1,0,0,1,311.5,238.7367)" style="-webkit-tap-highlight-color: rgba(0, 0, 0, 0);" stroke-width="1"></path></svg>